<svg width="1185" height="293" viewBox="0 0 1185 293" fill="none" xmlns="http://www.w3.org/2000/svg">
<path d="M0.326704 20.9254V1.90909H89.9219V20.9254H56.5234V111H33.7251V20.9254H0.326704ZM104.677 111V1.90909H147.717C155.955 1.90909 162.987 3.38281 168.81 6.33025C174.67 9.24218 179.126 13.3793 182.18 18.7415C185.27 24.0682 186.815 30.3359 186.815 37.5447C186.815 44.7891 185.252 51.0213 182.127 56.2415C179.002 61.4261 174.474 65.4034 168.544 68.1733C162.649 70.9432 155.511 72.3281 147.131 72.3281H118.313V53.7912H143.402C147.805 53.7912 151.463 53.1875 154.375 51.9801C157.287 50.7727 159.453 48.9616 160.874 46.5469C162.33 44.1321 163.058 41.1314 163.058 37.5447C163.058 33.9226 162.33 30.8686 160.874 28.3828C159.453 25.897 157.269 24.0149 154.322 22.7365C151.41 21.4226 147.734 20.7656 143.295 20.7656H127.741V111H104.677ZM163.59 61.3551L190.703 111H165.241L138.714 61.3551H163.59ZM270.497 1.90909H293.562V72.7543C293.562 80.7088 291.662 87.669 287.862 93.6349C284.098 99.6009 278.825 104.253 272.042 107.591C265.259 110.893 257.358 112.545 248.338 112.545C239.283 112.545 231.364 110.893 224.581 107.591C217.798 104.253 212.525 99.6009 208.761 93.6349C204.996 87.669 203.114 80.7088 203.114 72.7543V1.90909H226.179V70.7834C226.179 74.9382 227.085 78.6314 228.896 81.8629C230.742 85.0945 233.335 87.6335 236.673 89.4801C240.011 91.3267 243.899 92.25 248.338 92.25C252.813 92.25 256.701 91.3267 260.004 89.4801C263.342 87.6335 265.916 85.0945 267.727 81.8629C269.574 78.6314 270.497 74.9382 270.497 70.7834V1.90909ZM371.718 33.2834C371.292 28.9865 369.463 25.6484 366.231 23.2692C363 20.8899 358.614 19.7003 353.074 19.7003C349.31 19.7003 346.132 20.233 343.54 21.2983C340.947 22.3281 338.959 23.7663 337.574 25.6129C336.224 27.4595 335.55 29.5547 335.55 31.8984C335.479 33.8516 335.887 35.5561 336.775 37.0121C337.698 38.468 338.959 39.7287 340.557 40.794C342.155 41.8239 344.001 42.7294 346.096 43.5107C348.192 44.2564 350.429 44.8956 352.808 45.4283L362.609 47.772C367.368 48.8374 371.736 50.2578 375.713 52.0334C379.69 53.8089 383.135 55.9929 386.047 58.5852C388.959 61.1776 391.214 64.2315 392.812 67.7472C394.445 71.2628 395.28 75.2933 395.315 79.8388C395.28 86.5149 393.575 92.3033 390.202 97.2038C386.863 102.069 382.034 105.851 375.713 108.55C369.427 111.213 361.846 112.545 352.968 112.545C344.161 112.545 336.491 111.195 329.956 108.496C323.458 105.798 318.38 101.803 314.722 96.5114C311.1 91.1847 309.2 84.5973 309.023 76.7493H331.341C331.59 80.407 332.638 83.4609 334.484 85.9112C336.366 88.326 338.87 90.1548 341.995 91.3977C345.155 92.6051 348.724 93.2088 352.702 93.2088C356.608 93.2088 359.999 92.6406 362.876 91.5043C365.787 90.3679 368.042 88.7876 369.64 86.7635C371.238 84.7393 372.037 82.4134 372.037 79.7855C372.037 77.3352 371.309 75.2756 369.854 73.6065C368.433 71.9375 366.338 70.517 363.568 69.3452C360.834 68.1733 357.478 67.108 353.501 66.1491L341.622 63.1662C332.425 60.929 325.162 57.4311 319.836 52.6726C314.509 47.9141 311.863 41.5043 311.899 33.4432C311.863 26.8381 313.621 21.0675 317.172 16.1314C320.759 11.1953 325.677 7.34233 331.927 4.57244C338.177 1.80255 345.28 0.41761 353.234 0.41761C361.331 0.41761 368.398 1.80255 374.434 4.57244C380.507 7.34233 385.23 11.1953 388.604 16.1314C391.977 21.0675 393.717 26.7848 393.824 33.2834H371.718ZM406.674 20.9254V1.90909H496.27V20.9254H462.871V111H440.073V20.9254H406.674ZM535.581 111L504.366 1.90909H529.561L547.619 77.7081H548.525L568.446 1.90909H590.02L609.888 77.8679H610.847L628.904 1.90909H654.1L622.885 111H600.407L579.632 39.6754H578.78L558.059 111H535.581ZM760.541 56.4545C760.541 68.3509 758.286 78.4716 753.776 86.8168C749.301 95.1619 743.193 101.536 735.452 105.94C727.746 110.308 719.081 112.491 709.458 112.491C699.763 112.491 691.063 110.29 683.357 105.886C675.651 101.483 669.561 95.1087 665.086 86.7635C660.612 78.4183 658.374 68.3153 658.374 56.4545C658.374 44.5582 660.612 34.4375 665.086 26.0923C669.561 17.7472 675.651 11.3906 683.357 7.02273C691.063 2.61932 699.763 0.41761 709.458 0.41761C719.081 0.41761 727.746 2.61932 735.452 7.02273C743.193 11.3906 749.301 17.7472 753.776 26.0923C758.286 34.4375 760.541 44.5582 760.541 56.4545ZM737.156 56.4545C737.156 48.7486 736.002 42.25 733.694 36.9588C731.421 31.6676 728.208 27.6548 724.053 24.9205C719.898 22.1861 715.033 20.8189 709.458 20.8189C703.882 20.8189 699.017 22.1861 694.862 24.9205C690.708 27.6548 687.476 31.6676 685.168 36.9588C682.895 42.25 681.759 48.7486 681.759 56.4545C681.759 64.1605 682.895 70.6591 685.168 75.9503C687.476 81.2415 690.708 85.2543 694.862 87.9886C699.017 90.723 703.882 92.0902 709.458 92.0902C715.033 92.0902 719.898 90.723 724.053 87.9886C728.208 85.2543 731.421 81.2415 733.694 75.9503C736.002 70.6591 737.156 64.1605 737.156 56.4545ZM777.626 111V1.90909H820.666C828.904 1.90909 835.936 3.38281 841.76 6.33025C847.619 9.24218 852.076 13.3793 855.13 18.7415C858.219 24.0682 859.764 30.3359 859.764 37.5447C859.764 44.7891 858.201 51.0213 855.076 56.2415C851.951 61.4261 847.424 65.4034 841.493 68.1733C835.598 70.9432 828.461 72.3281 820.08 72.3281H791.262V53.7912H816.351C820.755 53.7912 824.412 53.1875 827.324 51.9801C830.236 50.7727 832.402 48.9616 833.823 46.5469C835.279 44.1321 836.007 41.1314 836.007 37.5447C836.007 33.9226 835.279 30.8686 833.823 28.3828C832.402 25.897 830.218 24.0149 827.271 22.7365C824.359 21.4226 820.684 20.7656 816.245 20.7656H800.691V111H777.626ZM836.539 61.3551L863.652 111H838.191L811.664 61.3551H836.539ZM871.909 20.9254V1.90909H961.504V20.9254H928.105V111H905.307V20.9254H871.909ZM976.259 111V1.90909H999.324V46.9197H1046.15V1.90909H1069.16V111H1046.15V65.9361H999.324V111H976.259ZM1081.78 1.90909H1107.62L1132.49 48.8906H1133.56L1158.43 1.90909H1184.27L1144.48 72.4347V111H1121.57V72.4347L1081.78 1.90909ZM4.48153 293V183.909H47.5213C55.7955 183.909 62.8445 185.489 68.6683 188.65C74.4922 191.775 78.9311 196.125 81.9851 201.7C85.0746 207.24 86.6193 213.632 86.6193 220.876C86.6193 228.121 85.0568 234.513 81.9318 240.053C78.8068 245.592 74.2791 249.907 68.3487 252.996C62.4538 256.086 55.3161 257.631 46.9354 257.631H19.5028V239.147H43.2067C47.6456 239.147 51.3033 238.384 54.1797 236.857C57.0916 235.294 59.2578 233.146 60.6783 230.411C62.1342 227.641 62.8622 224.463 62.8622 220.876C62.8622 217.254 62.1342 214.094 60.6783 211.395C59.2578 208.661 57.0916 206.548 54.1797 205.056C51.2678 203.529 47.5746 202.766 43.1001 202.766H27.5462V293H4.48153ZM107.806 293H83.0904L120.75 183.909H150.473L188.08 293H163.364L136.038 208.838H135.186L107.806 293ZM106.262 250.12H164.642V268.124H106.262V250.12ZM201.21 293V183.909H244.25C252.488 183.909 259.52 185.383 265.344 188.33C271.203 191.242 275.66 195.379 278.714 200.741C281.803 206.068 283.348 212.336 283.348 219.545C283.348 226.789 281.785 233.021 278.66 238.241C275.535 243.426 271.008 247.403 265.077 250.173C259.182 252.943 252.045 254.328 243.664 254.328H214.846V235.791H239.935C244.339 235.791 247.996 235.187 250.908 233.98C253.82 232.773 255.986 230.962 257.407 228.547C258.863 226.132 259.591 223.131 259.591 219.545C259.591 215.923 258.863 212.869 257.407 210.383C255.986 207.897 253.802 206.015 250.855 204.737C247.943 203.423 244.268 202.766 239.829 202.766H224.275V293H201.21ZM260.123 243.355L287.236 293H261.775L235.248 243.355H260.123ZM295.493 202.925V183.909H385.088V202.925H351.689V293H328.891V202.925H295.493ZM491.089 183.909V293H471.167L423.706 224.339H422.907V293H399.843V183.909H420.084L467.172 252.517H468.131V183.909H491.089ZM510.146 293V183.909H583.654V202.925H533.21V228.92H579.872V247.936H533.21V273.984H583.867V293H510.146ZM601.991 293V183.909H645.031C653.27 183.909 660.301 185.383 666.125 188.33C671.984 191.242 676.441 195.379 679.495 200.741C682.584 206.068 684.129 212.336 684.129 219.545C684.129 226.789 682.567 233.021 679.442 238.241C676.317 243.426 671.789 247.403 665.858 250.173C659.964 252.943 652.826 254.328 644.445 254.328H615.628V235.791H640.716C645.12 235.791 648.778 235.187 651.689 233.98C654.601 232.773 656.768 230.962 658.188 228.547C659.644 226.132 660.372 223.131 660.372 219.545C660.372 215.923 659.644 212.869 658.188 210.383C656.768 207.897 654.584 206.015 651.636 204.737C648.724 203.423 645.049 202.766 640.61 202.766H625.056V293H601.991ZM660.905 243.355L688.018 293H662.556L636.029 243.355H660.905Z" fill="white"/>
</svg>
